<?xml version="1.0" encoding="iso-8859-1"?>
<!-- Generator: Adobe Illustrator 19.0.0, SVG Export Plug-In . SVG Version: 6.00 Build 0)  -->
<svg version="1.1" id="Capa_1" xmlns="http://www.w3.org/2000/svg" xmlns:xlink="http://www.w3.org/1999/xlink" x="0px" y="0px"
	 viewBox="0 0 472.703 472.703" style="enable-background:new 0 0 472.703 472.703;" xml:space="preserve">
<path style="fill:#FDC75B;" d="M458.6,246.751h4.2c0,39.6-33.4,72.5-73,72.5s-72.5-32.3-72.5-72.5h4.7H458.6z"/>
<g>
	<path style="fill:#ED664C;" d="M298,409.051H174.8c0-33.9,27.6-61.6,61.6-61.6S298,375.151,298,409.051z"/>
	<circle style="fill:#ED664C;" cx="236.4" cy="98.651" r="35"/>
</g>
<path style="fill:#FDC75B;" d="M150.8,246.751h4.7c0,39.6-33.4,72.5-73,72.5s-72.5-32.3-72.5-72.5h4.2H150.8z"/>
<path d="M466,237.151l-60-128.8h25.5c5.5,0,10-4.5,10-10s-4.5-10-10-10H280.2c-4.6-20-22.5-35-43.8-35s-39.3,15-43.8,35H41.3
	c-5.5,0-10,4.5-10,10s4.5,10,10,10h25.5l-60,128.8c-4,1.3-6.8,5.1-6.8,9.5c0,45.5,37,82.5,82.5,82.5c21.9,0,42.6-8.6,58.4-24.3
	c15.9-15.7,24.6-36.4,24.6-58.2c0-4.6-3.2-8.7-7.4-9.8l-59.9-128.5h94.4c3.8,17,17,30.3,33.8,34.1v195.7
	c-34.7,4.9-61.6,34.9-61.6,71c0,5.5,4.5,10.2,10,10.2h123.1c5.5,0,10-4.6,10-10.2c0-36.1-26.8-66.1-61.6-71v-195.7
	c16.8-3.8,30-17.1,33.8-34.1h94.4l-59.9,128.6c-4.3,1.1-7.4,5.1-7.4,9.7c0,45.5,37,82.5,82.5,82.5c21.9,0,42.6-8.6,58.4-24.3
	c15.9-15.7,24.6-36.5,24.6-58.3C472.8,242.251,469.9,238.451,466,237.151z M82.5,308.851c-31.1,0-56.9-22.5-61.7-52.5h123.9
	C139.7,286.351,113.3,308.851,82.5,308.851z M135.9,236.351H29.1l53.4-114.5L135.9,236.351z M287,399.351H185.8
	c4.7-24,25.6-41.6,50.6-41.6S282.3,375.351,287,399.351z M236.4,123.551c-13.8,0-25-11.2-25-25s11.2-25,25-25c13.8,0,25,11.2,25,25
	S250.2,123.551,236.4,123.551z M390.3,121.851l53.4,114.5H336.9L390.3,121.851z M389.8,308.851c-31.1,0-56.9-22.5-61.7-52.5H452
	C447,286.351,420.5,308.851,389.8,308.851z"/>
<g>
</g>
<g>
</g>
<g>
</g>
<g>
</g>
<g>
</g>
<g>
</g>
<g>
</g>
<g>
</g>
<g>
</g>
<g>
</g>
<g>
</g>
<g>
</g>
<g>
</g>
<g>
</g>
<g>
</g>
</svg>
