<?xml version="1.0" encoding="iso-8859-1"?>
<!-- Generator: Adobe Illustrator 19.0.0, SVG Export Plug-In . SVG Version: 6.00 Build 0)  -->
<svg version="1.1" id="Capa_1" xmlns="http://www.w3.org/2000/svg" xmlns:xlink="http://www.w3.org/1999/xlink" x="0px" y="0px"
	 viewBox="0 0 496 496" style="enable-background:new 0 0 496 496;" xml:space="preserve">
<polygon style="fill:#ECECEC;" points="168,8 168,240 168,376 168,488 408,488 488,408 488,8 "/>
<polygon style="fill:#B6C1CE;" points="400,400 376,488 408,488 "/>
<g>
	<path style="fill:#F9E0A6;" d="M208,336L208,336c8.84,0,16-7.16,16-16s-7.16-16-16-16c8.84,0,16-7.16,16-16s-7.16-16-16-16l0,0
		c8.84,0,16-7.16,16-16s-7.16-16-16-16h-56c-8.84,0-16,7.16-16,16s7.16,16,16,16l0,0c-8.84,0-16,7.16-16,16s7.16,16,16,16
		c-8.84,0-16,7.16-16,16s7.16,16,16,16l0,0c-8.84,0-16,7.16-16,16s7.16,16,16,16h56c8.84,0,16-7.16,16-16S216.84,336,208,336z"/>
	<path style="fill:#F9E0A6;" d="M152,240h-18.584c-7.408,0-13.416-6.008-13.416-13.416c0-1.704,0.328-3.4,0.96-4.984
		c9.792-14.064,15.04-30.784,15.04-47.92V144c0-8.84-7.16-16-16-16l0,0c-8.84,0-16,7.16-16,16c0,25.608-10.176,50.176-28.288,68.288
		l-18.344,18.344c-5.992,6-14.136,9.368-22.624,9.368H8v104h29.336c6.92,0,13.664,2.248,19.2,6.4l14.936,11.2
		c5.536,4.152,12.272,6.4,19.2,6.4H152V240z"/>
</g>
<rect x="8" y="240" style="fill:#EABD8C;" width="24" height="104"/>
<g>
	<rect x="256" y="208" style="fill:#92E0C0;" width="64" height="64"/>
	<rect x="256" y="312" style="fill:#92E0C0;" width="64" height="64"/>
</g>
<g>
	<polygon style="fill:#FCD770;" points="248,40 257.888,52.224 272,58.336 264,72 262.832,88 248,84.224 233.168,88 232,72 
		224,58.336 238.112,52.224 	"/>
	<polygon style="fill:#FCD770;" points="328,40 337.888,52.224 352,58.336 344,72 342.832,88 328,84.224 313.168,88 312,72 
		304,58.336 318.112,52.224 	"/>
	<polygon style="fill:#FCD770;" points="288,104 297.888,116.224 312,122.336 304,136 302.832,152 288,148.224 273.168,152 272,136 
		264,122.336 278.112,116.224 	"/>
	<polygon style="fill:#FCD770;" points="368,104 377.888,116.224 392,122.336 384,136 382.832,152 368,148.224 353.168,152 352,136 
		344,122.336 358.112,116.224 	"/>
	<polygon style="fill:#FCD770;" points="408,40 417.888,52.224 432,58.336 424,72 422.832,88 408,84.224 393.168,88 392,72 
		384,58.336 398.112,52.224 	"/>
</g>
<polygon style="fill:#FEA82F;" points="408,408 408,488 488,408 "/>
<path d="M160,0v232h-8h-18.584c-2.984,0-5.416-2.432-5.416-5.416c0-0.456,0.056-0.904,0.168-1.352
	C138.528,209.96,144,192.16,144,173.68V144c0-13.232-10.768-24-24-24s-24,10.768-24,24c0,23.664-9.208,45.904-25.936,62.632
	L51.72,224.976C47.184,229.504,41.16,232,34.744,232H16v-8v-8H0v8v136v8h16v-8v-8h21.336c5.16,0,10.272,1.704,14.4,4.8L66.664,368
	c6.872,5.16,15.4,8,24,8H152h8v120h251.312L496,411.312V0H160z M208,248c4.416,0,8,3.592,8,8c0,4.416-3.584,8-8,8h-56
	c-4.416,0-8-3.584-8-8c0-4.408,3.584-8,8-8H208z M216,288c0,4.416-3.584,8-8,8h-56c-4.416,0-8-3.584-8-8s3.584-8,8-8h56
	C212.416,280,216,283.584,216,288z M144,320c0-4.416,3.584-8,8-8h56c4.416,0,8,3.584,8,8s-3.584,8-8,8h-56
	C147.584,328,144,324.416,144,320z M76.264,355.2L61.336,344c-6.872-5.16-15.4-8-24-8H16v-88h18.744
	c10.688,0,20.736-4.16,28.288-11.712l18.344-18.344C101.128,198.192,112,171.936,112,144c0-4.408,3.584-8,8-8s8,3.592,8,8v29.68
	c0,15.576-4.704,30.568-13.6,43.352l-0.864,1.608c-1.024,2.544-1.536,5.216-1.536,7.944c0,10.504,7.608,19.216,17.592,21.032
	C128.608,250.232,128,253.04,128,256c0,6.168,2.408,11.744,6.24,16c-3.84,4.256-6.24,9.832-6.24,16s2.408,11.744,6.24,16
	c-3.84,4.256-6.24,9.832-6.24,16s2.408,11.744,6.24,16c-3.84,4.256-6.24,9.832-6.24,16c0,2.816,0.576,5.488,1.472,8H90.664
	C85.504,360,80.392,358.296,76.264,355.2z M152,360c-4.416,0-8-3.584-8-8s3.584-8,8-8h56c4.416,0,8,3.584,8,8s-3.584,8-8,8h-16H152z
	 M176,376h16h16c13.232,0,24-10.768,24-24c0-6.168-2.408-11.744-6.24-16c3.84-4.256,6.24-9.832,6.24-16s-2.408-11.744-6.24-16
	c3.84-4.256,6.24-9.832,6.24-16s-2.408-11.744-6.24-16c3.84-4.256,6.24-9.832,6.24-16c0-13.232-10.768-24-24-24h-32V16h304v384h-80
	v80H176V376z M468.688,416L416,468.688V416H468.688z"/>
<path d="M346.344,178.344L324.688,200H248v80h80v-60.688l29.656-29.656L346.344,178.344z M312,264h-48v-48h44.688L288,236.688
	l-10.344-10.344l-11.312,11.312L288,259.312l24-24V264z"/>
<path d="M248,384h80v-80h-80V384z M264,320h48v48h-48V320z"/>
<rect x="368" y="200" width="96" height="16"/>
<rect x="368" y="264" width="96" height="16"/>
<rect x="368" y="232" width="40" height="16"/>
<rect x="424" y="232" width="40" height="16"/>
<rect x="368" y="304" width="96" height="16"/>
<rect x="368" y="368" width="96" height="16"/>
<rect x="368" y="336" width="40" height="16"/>
<rect x="424" y="336" width="40" height="16"/>
<path d="M270.128,98.112l1.72-23.672l11.624-19.848l-20.592-8.92L248,27.28l-14.872,18.384l-20.592,8.92l11.624,19.848l1.72,23.672
	L248,92.48L270.128,98.112z M239.84,69.56l-4.376-7.48l7.624-3.304L248,52.72l4.904,6.064l7.624,3.304l-4.368,7.472l-0.608,8.328
	L248,75.968l-7.544,1.92L239.84,69.56z"/>
<path d="M305.872,98.112L328,92.48l22.128,5.632l1.72-23.672l11.624-19.848l-20.592-8.92L328,27.28l-14.872,18.384l-20.592,8.92
	l11.624,19.848L305.872,98.112z M323.096,58.784L328,52.72l4.904,6.064l7.624,3.304l-4.368,7.472l-0.608,8.328L328,75.968
	l-7.544,1.92l-0.616-8.328l-4.376-7.48L323.096,58.784z"/>
<path d="M252.528,118.584l11.624,19.848l1.72,23.672L288,156.48l22.128,5.632l1.72-23.672l11.624-19.848l-20.592-8.92L288,91.28
	l-14.872,18.384L252.528,118.584z M283.096,122.784L288,116.72l4.904,6.064l7.624,3.304l-4.376,7.48l-0.608,8.328L288,139.968
	l-7.544,1.92l-0.608-8.328l-4.376-7.48L283.096,122.784z"/>
<path d="M332.528,118.584l11.624,19.848l1.72,23.672L368,156.48l22.128,5.632l1.72-23.672l11.624-19.848l-20.592-8.92L368,91.28
	l-14.872,18.384L332.528,118.584z M363.096,122.784L368,116.72l4.904,6.064l7.624,3.304l-4.376,7.48l-0.608,8.328L368,139.968
	l-7.544,1.92l-0.608-8.328l-4.376-7.48L363.096,122.784z"/>
<path d="M385.872,98.112L408,92.48l22.128,5.632l1.72-23.672l11.624-19.848l-20.592-8.92L408,27.28l-14.872,18.384l-20.592,8.92
	l11.624,19.848L385.872,98.112z M403.096,58.784L408,52.72l4.904,6.064l7.624,3.304l-4.368,7.472l-0.608,8.328L408,75.968
	l-7.544,1.92l-0.616-8.328l-4.376-7.48L403.096,58.784z"/>
<g>
</g>
<g>
</g>
<g>
</g>
<g>
</g>
<g>
</g>
<g>
</g>
<g>
</g>
<g>
</g>
<g>
</g>
<g>
</g>
<g>
</g>
<g>
</g>
<g>
</g>
<g>
</g>
<g>
</g>
</svg>
